<svg xmlns="http://www.w3.org/2000/svg" version="1.0" preserveAspectRatio="xMidYMid meet" viewBox="160 59 121.9 73.51">

<g transform="translate(0.000000,183.000000) scale(0.100000,-0.100000)" fill="#000000" stroke="none">
<path d="M1600 1233 c0 -16 463 -732 470 -728 12 8 190 303 190 315 0 6 -26 47 -57 91 l-58 80 -25 -28 c-14 -15 -37 -43 -52 -62 l-26 -34 -55 84 c-30 46 -84 130 -120 187 l-67 102 -100 0 c-55 0 -100 -3 -100 -7z"/>
<path d="M2597 1203 c-3 -5 -73 -126 -156 -271 -87 -152 -148 -268 -144 -275 26 -45 117 -156 123 -152 4 3 37 58 73 122 36 65 124 223 195 351 l131 232 -109 0 c-60 0 -111 -3 -113 -7z"/>
</g>
</svg>